<?xml version="1.0" encoding="UTF-8" standalone="no"?>
<!-- Created with Inkscape (http://www.inkscape.org/) -->

<svg
   xmlns:dc="http://purl.org/dc/elements/1.1/"
   xmlns:cc="http://creativecommons.org/ns#"
   xmlns:rdf="http://www.w3.org/1999/02/22-rdf-syntax-ns#"
   xmlns:svg="http://www.w3.org/2000/svg"
   xmlns="http://www.w3.org/2000/svg"
   xmlns:sodipodi="http://sodipodi.sourceforge.net/DTD/sodipodi-0.dtd"
   xmlns:inkscape="http://www.inkscape.org/namespaces/inkscape"
   width="134mm"
   height="39mm"
   viewBox="0 0 474.80293 138.1889"
   id="svg5185"
   version="1.1"
   inkscape:version="0.91 r13725"
   sodipodi:docname="logo.svg">
  <defs
     id="defs5187" />
  <sodipodi:namedview
     id="base"
     pagecolor="#ffffff"
     bordercolor="#666666"
     borderopacity="1.0"
     inkscape:pageopacity="0.0"
     inkscape:pageshadow="2"
     inkscape:zoom="1.9087215"
     inkscape:cx="174.54131"
     inkscape:cy="39.124087"
     inkscape:document-units="px"
     inkscape:current-layer="text4529"
     showgrid="false"
     units="mm"
     width="209mm"
     inkscape:window-width="1918"
     inkscape:window-height="1027"
     inkscape:window-x="0"
     inkscape:window-y="28"
     inkscape:window-maximized="0" />
  <metadata
     id="metadata5190">
    <rdf:RDF>
      <cc:Work
         rdf:about="">
        <dc:format>image/svg+xml</dc:format>
        <dc:type
           rdf:resource="http://purl.org/dc/dcmitype/StillImage" />
        <dc:title />
      </cc:Work>
    </rdf:RDF>
  </metadata>
  <g
     inkscape:label="Capa 1"
     inkscape:groupmode="layer"
     id="layer1"
     transform="translate(0,-914.17353)">
    <g
       style="font-variant:normal;font-weight:normal;font-stretch:normal;font-size:21.824543px;font-family:'Gotham Rounded Book';-inkscape-font-specification:GothamRounded-Book;writing-mode:lr-tb;fill:#f0411e;fill-opacity:1;fill-rule:nonzero;stroke:none"
       id="text4529">
      <path
         d="m 159.9145,1016.1561 3.20761,0 4.06013,10.827 4.08145,-10.827 3.20761,0 0,15.9102 -2.09934,0 0,-13.9707 -4.10276,10.9123 -2.16327,0 -4.10276,-10.9123 0,13.9707 -2.08867,0 0,-15.9102 z"
         style=""
         id="path4865" />
      <path
         d="m 185.75235,1017.616 q -2.34443,0 -3.72978,1.7477 -1.37469,1.7477 -1.37469,4.7635 0,3.0051 1.37469,4.7528 1.38535,1.7477 3.72978,1.7477 2.34443,0 3.70847,-1.7477 1.37469,-1.7477 1.37469,-4.7528 0,-3.0158 -1.37469,-4.7635 -1.36404,-1.7477 -3.70847,-1.7477 z m 0,-1.7476 q 3.34615,0 5.34957,2.2485 2.00343,2.2379 2.00343,6.0103 0,3.7617 -2.00343,6.0103 -2.00342,2.2378 -5.34957,2.2378 -3.3568,0 -5.37088,-2.2378 -2.00343,-2.2379 -2.00343,-6.0103 0,-3.7724 2.00343,-6.0103 2.01408,-2.2485 5.37088,-2.2485 z"
         style=""
         id="path4867" />
      <path
         d="m 198.28175,1016.1561 3.20761,0 4.06013,10.827 4.08144,-10.827 3.20761,0 0,15.9102 -2.09933,0 0,-13.9707 -4.10276,10.9123 -2.16327,0 -4.10276,-10.9123 0,13.9707 -2.08867,0 0,-15.9102 z"
         style=""
         id="path4869" />
      <path
         d="m 217.66199,1016.1561 10.05975,0 0,1.8116 -7.90713,0 0,4.7102 7.57678,0 0,1.8116 -7.57678,0 0,5.7652 8.09895,0 0,1.8116 -10.25157,0 0,-15.9102 z"
         style=""
         id="path4871" />
      <path
         d="m 232.72095,1016.1561 2.89858,0 7.05461,13.31 0,-13.31 2.08868,0 0,15.9102 -2.89858,0 -7.05461,-13.31 0,13.31 -2.08868,0 0,-15.9102 z"
         style=""
         id="path4873" />
      <path
         d="m 248.19293,1016.1561 13.45918,0 0,1.8116 -5.64796,0 0,14.0986 -2.16327,0 0,-14.0986 -5.64795,0 0,-1.8116 z"
         style=""
         id="path4875" />
      <path
         d="m 270.38792,1017.616 q -2.34443,0 -3.72978,1.7477 -1.37469,1.7477 -1.37469,4.7635 0,3.0051 1.37469,4.7528 1.38535,1.7477 3.72978,1.7477 2.34444,0 3.70847,-1.7477 1.37469,-1.7477 1.37469,-4.7528 0,-3.0158 -1.37469,-4.7635 -1.36403,-1.7477 -3.70847,-1.7477 z m 0,-1.7476 q 3.34615,0 5.34957,2.2485 2.00343,2.2379 2.00343,6.0103 0,3.7617 -2.00343,6.0103 -2.00342,2.2378 -5.34957,2.2378 -3.3568,0 -5.37088,-2.2378 -2.00342,-2.2379 -2.00342,-6.0103 0,-3.7724 2.00342,-6.0103 2.01408,-2.2485 5.37088,-2.2485 z"
         style=""
         id="path4877" />
      <path
         d="m 292.05388,1017.9251 0,12.3722 2.60019,0 q 3.29287,0 4.81675,-1.4919 1.53454,-1.4919 1.53454,-4.7102 0,-3.1969 -1.53454,-4.6782 -1.52388,-1.4919 -4.81675,-1.4919 l -2.60019,0 z m -2.15261,-1.769 4.42245,0 q 4.62493,0 6.7882,1.9288 2.16327,1.9182 2.16327,6.0103 0,4.1134 -2.17393,6.0423 -2.17392,1.9288 -6.77754,1.9288 l -4.42245,0 0,-15.9102 z"
         style=""
         id="path4879" />
      <path
         d="m 307.40456,1016.1561 10.05975,0 0,1.8116 -7.90713,0 0,4.7102 7.57678,0 0,1.8116 -7.57678,0 0,5.7652 8.09895,0 0,1.8116 -10.25157,0 0,-15.9102 z"
         style=""
         id="path4881" />
      <path
         d="m 334.76489,1018.2768 -2.91989,7.9177 5.85043,0 -2.93054,-7.9177 z m -1.21484,-2.1207 2.44034,0 6.06356,15.9102 -2.23787,0 -1.44929,-4.0815 -7.17183,0 -1.44929,4.0815 -2.26984,0 6.07422,-15.9102 z"
         style=""
         id="path4883" />
      <path
         d="m 349.08923,1032.0663 -6.07421,-15.9102 2.24852,0 5.04053,13.3952 5.05119,-13.3952 2.23787,0 -6.06356,15.9102 -2.44034,0 z"
         style=""
         id="path4885" />
      <path
         d="m 364.97021,1018.2768 -2.91988,7.9177 5.85042,0 -2.93054,-7.9177 z m -1.21484,-2.1207 2.44034,0 6.06356,15.9102 -2.23787,0 -1.44929,-4.0815 -7.17183,0 -1.44929,4.0815 -2.26984,0 6.07422,-15.9102 z"
         style=""
         id="path4887" />
      <path
         d="m 377.19936,1016.1561 2.89858,0 7.05461,13.31 0,-13.31 2.08868,0 0,15.9102 -2.89858,0 -7.05461,-13.31 0,13.31 -2.08868,0 0,-15.9102 z"
         style=""
         id="path4889" />
      <path
         d="m 393.96076,1016.1561 12.50009,0 0,1.6411 -10.05975,12.4575 10.30485,0 0,1.8116 -12.99029,0 0,-1.6411 10.05975,-12.4575 -9.81465,0 0,-1.8116 z"
         style=""
         id="path4891" />
      <path
         d="m 415.73169,1018.2768 -2.91989,7.9177 5.85043,0 -2.93054,-7.9177 z m -1.21485,-2.1207 2.44035,0 6.06355,15.9102 -2.23787,0 -1.44928,-4.0815 -7.17184,0 -1.44928,4.0815 -2.26984,0 6.07421,-15.9102 z"
         style=""
         id="path4893" />
      <path
         d="m 435.50589,1024.6067 q 0.69268,0.2345 1.34273,1.0017 0.6607,0.7673 1.3214,2.11 l 2.18459,4.3479 -2.31246,0 -2.0354,-4.0815 q -0.78858,-1.5984 -1.53454,-2.1206 -0.7353,-0.5222 -2.01408,-0.5222 l -2.34443,0 0,6.7243 -2.15262,0 0,-15.9102 4.85937,0 q 2.72807,0 4.07079,1.1403 1.34272,1.1402 1.34272,3.442 0,1.5026 -0.70333,2.4936 -0.69267,0.9911 -2.02474,1.3747 z m -5.39219,-6.6816 0,5.6479 2.70675,0 q 1.55585,0 2.34444,-0.7139 0.79923,-0.7247 0.79923,-2.1207 0,-1.396 -0.79923,-2.0993 -0.78859,-0.714 -2.34444,-0.714 l -2.70675,0 z"
         style=""
         id="path4895" />
    </g>
    <g
       id="g4541"
       transform="matrix(1.3726385,0,0,-1.3726385,453.98769,941.15813)">
      <path
         d="m 0,0 c 0.959,0 1.81,0.053 1.81,1.095 0,0.912 -0.771,1.027 -1.506,1.027 l -1.442,0 L -1.138,0 0,0 Z m -2.198,3.081 2.691,0 c 1.541,0 2.376,-0.658 2.376,-2.037 0,-1.232 -0.817,-1.811 -1.876,-1.922 l 1.988,-2.998 -1.057,0 -1.924,2.917 -1.138,0 0,-2.917 -1.06,0 0,6.957 z m 7.261,-3.446 c 0,2.758 -2.179,4.985 -4.889,4.985 -2.708,0 -4.887,-2.227 -4.887,-4.985 0,-2.76 2.179,-4.986 4.887,-4.986 2.71,0 4.889,2.226 4.889,4.986 m -4.889,5.95 c 3.289,0 5.949,-2.665 5.949,-5.95 0,-3.287 -2.66,-5.949 -5.949,-5.949 -3.286,0 -5.947,2.662 -5.947,5.949 0,3.285 2.661,5.95 5.947,5.95"
         style="fill:#77828a;fill-opacity:1;fill-rule:nonzero;stroke:none"
         id="path4543"
         inkscape:connector-curvature="0" />
    </g>
    <g
       id="g4545"
       transform="matrix(1.3726385,0,0,-1.3726385,73.418331,966.82949)">
      <path
         d="M 0,0 -1.717,0 C -2.294,0 -2.76,-0.466 -2.76,-1.044 l 0,-20.691 c -1.638,-0.741 -3.41,-1.311 -5.287,-1.699 -4.771,-1.011 -10.132,-0.901 -15.078,0.564 -2.734,0.801 -5.205,2.096 -7.36,3.855 -2.127,1.744 -3.88,4.037 -5.209,6.819 -1.322,2.771 -1.994,6.178 -1.994,10.121 0,3.945 0.665,7.341 1.964,10.096 1.301,2.761 3.019,5.046 5.117,6.788 2.102,1.756 4.533,3.065 7.219,3.885 4.958,1.515 10.121,1.637 15.326,0.466 2.335,-0.533 4.437,-1.307 6.256,-2.306 0.328,-0.182 0.717,-0.172 1.032,0.019 0.321,0.188 0.513,0.528 0.513,0.898 l 0,1.718 c 0,0.388 -0.216,0.748 -0.559,0.929 -2.087,1.089 -4.389,1.916 -6.854,2.458 -5.476,1.221 -11.409,1.095 -17.013,-0.643 -3.141,-0.971 -5.99,-2.53 -8.473,-4.627 -2.482,-2.109 -4.515,-4.815 -6.036,-8.046 -1.527,-3.239 -2.296,-7.155 -2.296,-11.635 0,-4.525 0.781,-8.476 2.331,-11.741 1.55,-3.256 3.606,-5.963 6.119,-8.046 2.498,-2.074 5.395,-3.604 8.605,-4.559 3.182,-0.943 6.462,-1.414 9.743,-1.414 2.668,0 5.32,0.284 7.883,0.846 2.577,0.571 5.022,1.405 7.266,2.484 0.361,0.175 0.588,0.539 0.588,0.941 l 0,22.52 C 1.043,-0.466 0.577,0 0,0"
         style="fill:#77828a;fill-opacity:1;fill-rule:nonzero;stroke:none"
         id="path4547"
         inkscape:connector-curvature="0" />
    </g>
    <g
       id="g4549"
       transform="matrix(1.3726385,0,0,-1.3726385,211.78535,935.25208)">
      <path
         d="M 0,0 -1.717,0 C -2.294,0 -2.76,-0.469 -2.76,-1.045 l 0,-42.009 -33.224,42.651 C -36.182,-0.148 -36.486,0 -36.807,0 l -1.445,0 c -0.576,0 -1.043,-0.469 -1.043,-1.045 l 0,-48.064 c 0,-0.577 0.467,-1.044 1.043,-1.044 l 1.72,0 c 0.576,0 1.042,0.467 1.042,1.044 l 0,42.063 33.148,-42.706 c 0.199,-0.251 0.508,-0.401 0.829,-0.401 l 1.513,0 c 0.578,0 1.044,0.467 1.044,1.044 l 0,48.064 C 1.044,-0.469 0.578,0 0,0"
         style="fill:#77828a;fill-opacity:1;fill-rule:nonzero;stroke:none"
         id="path4551"
         inkscape:connector-curvature="0" />
    </g>
    <g
       id="g4553"
       transform="matrix(1.3726385,0,0,-1.3726385,278.05263,935.25208)">
      <path
         d="m 0,0 -38.662,0 c -0.576,0 -1.043,-0.469 -1.043,-1.045 l 0,-1.651 c 0,-0.574 0.467,-1.04 1.043,-1.04 l 17.429,0 0,-45.373 c 0,-0.577 0.465,-1.044 1.042,-1.044 l 1.72,0 c 0.576,0 1.043,0.467 1.043,1.044 l 0,45.373 17.428,0 c 0.577,0 1.043,0.466 1.043,1.04 l 0,1.651 C 1.043,-0.469 0.577,0 0,0"
         style="fill:#77828a;fill-opacity:1;fill-rule:nonzero;stroke:none"
         id="path4555"
         inkscape:connector-curvature="0" />
    </g>
    <g
       id="g4557"
       transform="matrix(1.3726385,0,0,-1.3726385,293.59941,935.25208)">
      <path
         d="m 0,0 -1.717,0 c -0.578,0 -1.044,-0.469 -1.044,-1.045 l 0,-48.064 c 0,-0.577 0.466,-1.044 1.044,-1.044 l 1.717,0 c 0.579,0 1.044,0.467 1.044,1.044 l 0,48.064 C 1.044,-0.469 0.579,0 0,0"
         style="fill:#77828a;fill-opacity:1;fill-rule:nonzero;stroke:none"
         id="path4559"
         inkscape:connector-curvature="0" />
    </g>
    <g
       id="g4561"
       transform="matrix(1.3726385,0,0,-1.3726385,357.12883,998.9645)">
      <path
         d="m 0,0 -29.104,0 0,19.611 26.424,0 c 0.576,0 1.043,0.465 1.043,1.044 l 0,1.644 c 0,0.575 -0.467,1.042 -1.043,1.042 l -26.424,0 0,19.339 28.487,0 c 0.577,0 1.043,0.466 1.043,1.04 l 0,1.651 c 0,0.576 -0.466,1.045 -1.043,1.045 l -31.25,0 c -0.575,0 -1.043,-0.469 -1.043,-1.045 l 0,-48.064 c 0,-0.577 0.468,-1.044 1.043,-1.044 l 31.867,0 c 0.579,0 1.043,0.467 1.043,1.044 l 0,1.646 C 1.043,-0.468 0.579,0 0,0"
         style="fill:#77828a;fill-opacity:1;fill-rule:nonzero;stroke:none"
         id="path4563"
         inkscape:connector-curvature="0" />
    </g>
    <g
       id="g4565"
       transform="matrix(1.3726385,0,0,-1.3726385,437.34239,935.25208)">
      <path
         d="m 0,0 -1.306,0 c -0.343,0 -0.663,-0.169 -0.86,-0.454 L -23.621,-31.678 -45.013,-0.454 C -45.21,-0.169 -45.529,0 -45.875,0 l -1.304,0 c -0.576,0 -1.044,-0.469 -1.044,-1.045 l 0,-48.064 c 0,-0.577 0.468,-1.044 1.044,-1.044 l 1.719,0 c 0.574,0 1.043,0.467 1.043,1.044 l 0,41.262 19.45,-28.394 c 0.198,-0.282 0.519,-0.451 0.863,-0.451 l 1.029,0 c 0.344,0 0.665,0.169 0.864,0.451 l 19.451,28.394 0,-41.262 c 0,-0.577 0.466,-1.044 1.042,-1.044 l 1.718,0 c 0.577,0 1.043,0.467 1.043,1.044 l 0,48.064 C 1.043,-0.469 0.577,0 0,0"
         style="fill:#77828a;fill-opacity:1;fill-rule:nonzero;stroke:none"
         id="path4567"
         inkscape:connector-curvature="0" />
    </g>
    <g
       id="g4569"
       transform="matrix(1.3726385,0,0,-1.3726385,129.27083,1002.7553)">
      <path
         d="m 0,0 -8.828,20.675 c -0.233,0.549 -1.143,0.549 -1.375,0 l -8.909,-20.867 c -0.099,-0.231 -0.076,-0.495 0.064,-0.704 0.14,-0.212 0.374,-0.334 0.623,-0.334 l 17.819,0 0.035,0 c 0.413,0 0.745,0.334 0.745,0.744 C 0.174,-0.301 0.11,-0.128 0,0"
         style="fill:#77828a;fill-opacity:1;fill-rule:nonzero;stroke:none"
         id="path4571"
         inkscape:connector-curvature="0" />
    </g>
    <g
       id="g4573"
       transform="matrix(1.3726385,0,0,-1.3726385,118.92787,936.08856)">
      <path
         d="m 0,0 c -0.167,0.372 -0.542,0.609 -0.949,0.609 l -1.992,0 c -0.408,0 -0.782,-0.237 -0.951,-0.606 l -22.106,-48.068 c -0.146,-0.323 -0.124,-0.7 0.069,-0.997 0.192,-0.302 0.525,-0.482 0.88,-0.482 l 1.853,0 c 0.409,0 0.781,0.235 0.95,0.606 L -1.91,-4.633 18.292,-48.938 c 0.174,-0.371 0.541,-0.606 0.949,-0.606 l 1.853,0 c 0.354,0 0.688,0.18 0.88,0.481 0.192,0.298 0.215,0.672 0.069,0.997 L 0,0 Z"
         style="fill:#f0411e;fill-opacity:1;fill-rule:nonzero;stroke:none"
         id="path4575"
         inkscape:connector-curvature="0" />
    </g>
  </g>
</svg>
